# File created by Blade
# Date/Time:  Wed Jan 28 15:39:58 2015
#---------------------------------------------------------
:version 1.10
:name HOM
:units
  mass 1.0
  length 1.000000
  angle deg
:documentation
     Acclaim Skeleton File
:root
   axis xyz
   order TX TY TZ RX RY RZ
   position 0.000000 0.000000 0.000000
   orientation 0 0 0
:bonedata
   begin
      id 1
      name Spine_dum
      direction 0.000000 1.000000 0.000000
      length 6.864287
      axis 0.0 0.0 0.0 xyz
   end
   begin
      id 2
      name LeftUpLeg_dum
      direction 1.000000 0.000000 0.000000
      length 4.117376
      axis 0.0 0.0 0.0 xyz
   end
   begin
      id 3
      name RightUpLeg_dum
      direction -1.000000 0.000000 0.000000
      length 4.117376
      axis 0.0 0.0 0.0 xyz
   end
   begin
      id 4
      name Spine
      direction 0.000000 1.000000 0.000000
      length 0.000000
      axis 0.0 0.0 0.0 xyz
      dof rx ry rz
   end
   begin
      id 5
      name Spine_dum1
      direction 0.000000 1.000000 0.000000
      length 15.393827
      axis 0.0 0.0 0.0 xyz
   end
   begin
      id 6
      name Spine_dum2
      direction 0.000000 1.000000 0.000000
      length 9.314826
      axis 0.0 0.0 0.0 xyz
   end
   begin
      id 7
      name Spine_dum3
      direction 0.000000 1.000000 0.000000
      length 9.314826
      axis 0.0 0.0 0.0 xyz
   end
   begin
      id 8
      name Head
      direction 0.000000 1.000000 0.000000
      length 4.527550
      axis 0.0 0.0 0.0 xyz
      dof rx ry rz
   end
   begin
      id 9
      name LeftShoulder
      direction 1.000000 0.000000 0.000000
      length 8.275398
      axis 0.0 0.0 -90.0 xyz
      dof rx ry rz
   end
   begin
      id 10
      name LeftArm
      direction 1.000000 0.000000 0.000000
      length 12.002200
      axis 0.0 0.0 -90.0 xyz
      dof rx ry rz
   end
   begin
      id 11
      name LeftForeArm
      direction 1.000000 0.000000 0.000000
      length 10.144633
      axis 0.0 0.0 -90.0 xyz
      dof ry rz rx
   end
   begin
      id 12
      name LeftHand
      direction 0.000000 0.000000 0.000000
      length 0.000000
      axis 0.0 0.0 -90.0 xyz
      dof rx ry rz
   end
   begin
      id 13
      name LeftHand_dum1
      direction 0.000000 0.000000 0.000000
      length 0.000000
      axis 0.0 0.0 -90.0 xyz
   end
   begin
      id 14
      name LeftHand_dum2
      direction 1.000000 0.000000 0.000000
      length 3.937000
      axis 0.0 0.0 -90.0 xyz
   end
   begin
      id 15
      name LeftHandThumb1
      direction 0.000000 0.000000 1.000000
      length 3.937000
      axis 0.0 0.0 -90.0 xyz
      dof rx rz ry
   end
   begin
      id 16
      name RightShoulder
      direction -1.000000 0.000000 0.000000
      length 8.275398
      axis 0.0 0.0 90.0 xyz
      dof rx ry rz
   end
   begin
      id 17
      name RightArm
      direction -1.000000 0.000000 0.000000
      length 12.002200
      axis 0.0 0.0 90.0 xyz
      dof rx ry rz
   end
   begin
      id 18
      name RightForeArm
      direction -1.000000 0.000000 0.000000
      length 10.144633
      axis 0.0 0.0 90.0 xyz
      dof ry rz rx
   end
   begin
      id 19
      name RightHand
      direction 0.000000 0.000000 0.000000
      length 0.000000
      axis 0.0 0.0 90.0 xyz
      dof rx ry rz
   end
   begin
      id 20
      name RightHand_dum1
      direction 0.000000 0.000000 0.000000
      length 0.000000
      axis 0.0 0.0 90.0 xyz
   end
   begin
      id 21
      name RightHand_dum2
      direction -1.000000 0.000000 0.000000
      length 3.937000
      axis 0.0 0.0 90.0 xyz
   end
   begin
      id 22
      name RightHandThumb1
      direction 0.000000 0.000000 1.000000
      length 3.937000
      axis 0.0 0.0 90.0 xyz
      dof rx rz ry
   end
   begin
      id 23
      name LeftUpLeg
      direction 0.000000 -1.000000 0.000000
      length 19.394322
      axis 0.0 0.0 0.0 xyz
      dof rx ry rz
   end
   begin
      id 24
      name LeftLeg
      direction 0.000000 -1.000000 0.000000
      length 17.609563
      axis 0.0 0.0 0.0 xyz
      dof rx ry rz
   end
   begin
      id 25
      name LeftFoot
      direction 0.000000 -0.258819 0.965926
      length 6.085393
      axis 15.0 0.0 0.0 xyz
      dof rx ry rz
   end
   begin
      id 26
      name LeftToeBase
      direction 0.000000 0.000000 1.000000
      length 2.952750
      axis 0.0 0.0 0.0 xyz
      dof rx ry rz
   end
   begin
      id 27
      name RightUpLeg
      direction 0.000000 -1.000000 0.000000
      length 19.394322
      axis 0.0 0.0 0.0 xyz
      dof rx ry rz
   end
   begin
      id 28
      name RightLeg
      direction 0.000000 -1.000000 0.000000
      length 17.609563
      axis 0.0 0.0 0.0 xyz
      dof rx ry rz
   end
   begin
      id 29
      name RightFoot
      direction 0.000000 -0.258819 0.965926
      length 6.085393
      axis 15.0 0.0 0.0 xyz
      dof rx ry rz
   end
   begin
      id 30
      name RightToeBase
      direction 0.000000 0.000000 1.000000
      length 2.952750
      axis 0.0 0.0 0.0 xyz
      dof rx ry rz
   end
:hierarchy
   begin
      root Spine_dum LeftUpLeg_dum RightUpLeg_dum
      Spine_dum Spine
      LeftUpLeg_dum LeftUpLeg
      RightUpLeg_dum RightUpLeg
      Spine Spine_dum1 Spine_dum2 Spine_dum3
      Spine_dum1 Head
      Spine_dum2 LeftShoulder
      Spine_dum3 RightShoulder
      LeftShoulder LeftArm
      LeftArm LeftForeArm
      LeftForeArm LeftHand
      LeftHand LeftHand_dum1 LeftHand_dum2
      LeftHand_dum1 LeftHandThumb1
      RightShoulder RightArm
      RightArm RightForeArm
      RightForeArm RightHand
      RightHand RightHand_dum1 RightHand_dum2
      RightHand_dum1 RightHandThumb1
      LeftUpLeg LeftLeg
      LeftLeg LeftFoot
      LeftFoot LeftToeBase
      RightUpLeg RightLeg
      RightLeg RightFoot
      RightFoot RightToeBase
   end

# File created by Blade
# Date/Time:  Wed Jan 28 15:40:07 2015
# Frame Rate: 120.000 fps
#------------------------------------------------------
:FULLY-SPECIFIED
:DEGREES
173
root 0.653403 39.508283 -10.560932 4.731638 -31.967293 5.714960
Spine 18.979825 -5.667853 5.991499
Head -0.074959 -37.181930 8.628687
LeftShoulder -13.369529 19.646119 17.060180
LeftArm 22.740113 25.982159 -67.741005
LeftForeArm 16.781316 0.000000 62.336468
LeftHand 6.450057 -0.000000 -6.914341
LeftHandThumb1 -26.253704 0.000000 33.147579
RightShoulder -5.442510 11.399792 -23.641460
RightArm 13.331993 31.620859 54.639115
RightForeArm 5.745013 0.000000 51.359669
RightHand -4.219282 -0.000000 -42.108069
RightHandThumb1 -24.326973 -0.000000 -32.862282
LeftUpLeg -5.966619 22.362032 -3.688387
LeftLeg 8.734952 -0.000000 -0.000000
LeftFoot -13.588016 17.990885 -21.123669
LeftToeBase 9.320442 -0.000000 -0.000000
RightUpLeg -16.690094 -15.064272 -3.858951
RightLeg 13.213627 -0.000000 -0.000000
RightFoot -16.154045 -24.010276 21.074693
RightToeBase 11.568629 -0.000000 -0.000000
174
root 0.553009 39.508251 -10.608936 4.965596 -32.000077 5.687864
Spine 19.108663 -5.894283 6.487969
Head -0.228245 -37.049495 8.277151
LeftShoulder -13.473535 19.695575 16.805505
LeftArm 22.933119 26.479769 -67.695001
LeftForeArm 16.776094 -0.000000 62.357045
LeftHand 6.475165 -0.000000 -7.059375
LeftHandThumb1 -26.253704 0.000000 33.147579
RightShoulder -5.353122 11.445815 -23.879134
RightArm 13.530828 31.851747 54.629273
RightForeArm 5.727856 -0.000000 51.560225
RightHand -4.243045 0.000000 -42.034560
RightHandThumb1 -24.326973 -0.000000 -32.862282
LeftUpLeg -6.439792 22.118366 -3.542010
LeftLeg 9.293063 -0.000000 -0.000000
LeftFoot -13.648773 18.008609 -21.300285
LeftToeBase 9.132865 -0.000000 -0.000000
RightUpLeg -16.919231 -15.276319 -3.561269
RightLeg 13.196820 -0.000000 -0.000000
RightFoot -16.119891 -23.881781 20.763447
RightToeBase 10.931192 -0.000000 -0.000000
175
root 0.450197 39.508048 -10.655396 5.206248 -32.093699 5.669342
Spine 19.211243 -6.053055 6.922982
Head -0.367698 -36.780586 8.015519
LeftShoulder -13.519389 19.773999 16.623091
LeftArm 23.032654 26.886456 -67.755692
LeftForeArm 16.792444 -0.000000 62.397051
LeftHand 6.495845 0.000000 -7.199763
LeftHandThumb1 -26.253704 0.000000 33.147579
RightShoulder -5.239423 11.598512 -24.051324
RightArm 13.632189 32.049518 54.564422
RightForeArm 5.708286 0.000000 51.742664
RightHand -4.087972 -0.000000 -42.289935
RightHandThumb1 -24.326973 -0.000000 -32.862282
LeftUpLeg -6.904897 21.929959 -3.380418
LeftLeg 9.862100 -0.000000 -0.000000
LeftFoot -13.704911 17.896221 -21.566920
LeftToeBase 8.900804 -0.000000 -0.000000
RightUpLeg -17.181831 -15.366933 -3.285099
RightLeg 13.231170 -0.000000 -0.000000
RightFoot -16.158247 -23.740637 20.608532
RightToeBase 10.930322 -0.000000 -0.000000
176
root 0.348947 39.508765 -10.700108 5.409794 -32.203417 5.659285
Spine 19.344013 -6.183373 7.357086
Head -0.502409 -36.586452 7.729396
LeftShoulder -13.472627 19.690104 16.488355
LeftArm 22.899378 27.293519 -67.928453
LeftForeArm 16.752695 -0.000000 62.463543
LeftHand 6.398862 -0.000000 -7.282859
LeftHandThumb1 -26.253704 0.000000 33.147579
RightShoulder -5.177942 11.645229 -24.234636
RightArm 13.915184 32.259780 54.576442
RightForeArm 5.327874 -0.000000 51.845070
RightHand -4.144210 -0.000000 -42.300096
RightHandThumb1 -24.326973 -0.000000 -32.862282
LeftUpLeg -7.307911 21.772052 -3.214244
LeftLeg 10.377217 -0.000000 -0.000000
LeftFoot -13.714933 17.783204 -21.787845
LeftToeBase 8.776544 -0.000000 -0.000000
RightUpLeg -17.407700 -15.426415 -3.037605
RightLeg 13.267523 -0.000000 -0.000000
RightFoot -16.027025 -23.591463 20.227191
RightToeBase 11.071710 -0.000000 -0.000000
177
root 0.245123 39.509393 -10.743777 5.585815 -32.360769 5.664063
Spine 19.495641 -6.220153 7.760164
Head -0.635106 -36.464049 7.495059
LeftShoulder -13.495103 19.679302 16.361812
LeftArm 22.975108 27.723617 -67.988287
LeftForeArm 16.683045 -0.000000 62.410221
LeftHand 6.462772 -0.000000 -7.341142
LeftHandThumb1 -26.253704 0.000000 33.147579
RightShoulder -5.164811 11.697202 -24.368815
RightArm 14.192106 32.514744 54.588782
RightForeArm 5.587582 -0.000000 52.026705
RightHand -4.135557 0.000000 -42.343768
RightHandThumb1 -24.326973 -0.000000 -32.862282
LeftUpLeg -7.677034 21.694739 -3.043705
LeftLeg 10.885709 -0.000000 -0.000000
LeftFoot -13.695597 17.601820 -22.029635
LeftToeBase 8.617542 -0.000000 -0.000000
RightUpLeg -17.645226 -15.425594 -2.815358
RightLeg 13.363899 -0.000000 -0.000000
RightFoot -16.165635 -23.422671 20.222079
RightToeBase 11.327873 -0.000000 -0.000000
178
root 0.144584 39.510650 -10.785043 5.768739 -32.495940 5.671869
Spine 19.625802 -6.228161 8.170629
Head -0.753164 -36.359499 7.283207
LeftShoulder -13.482822 19.697241 16.244959
LeftArm 23.082346 28.110176 -68.060938
LeftForeArm 16.725779 -0.000000 62.350949
LeftHand 6.468424 0.000000 -7.475824
LeftHandThumb1 -26.253704 0.000000 33.147579
RightShoulder -5.187536 11.783580 -24.475052
RightArm 14.519508 32.816896 54.580881
RightForeArm 5.428674 0.000000 52.071140
RightHand -4.273114 -0.000000 -42.244629
RightHandThumb1 -24.326973 -0.000000 -32.862282
LeftUpLeg -8.037789 21.575804 -2.879931
LeftLeg 11.364668 -0.000000 -0.000000
LeftFoot -13.629982 17.439340 -22.237642
LeftToeBase 8.373412 -0.000000 -0.000000
RightUpLeg -17.869648 -15.385665 -2.612001
RightLeg 13.435476 -0.000000 -0.000000
RightFoot -16.297323 -23.308109 20.218354
RightToeBase 11.150608 -0.000000 -0.000000
179
root 0.045080 39.514499 -10.825547 5.891076 -32.649260 5.746261
Spine 19.790281 -6.245226 8.492865
Head -0.886514 -36.245688 7.088006
LeftShoulder -13.460298 19.727556 16.129403
LeftArm 23.155950 28.423711 -68.136757
LeftForeArm 16.733623 -0.000000 62.316202
LeftHand 6.345509 -0.000000 -7.509071
LeftHandThumb1 -26.253704 0.000000 33.147579
RightShoulder -5.162421 11.857329 -24.608423
RightArm 14.722038 33.105901 54.598760
RightForeArm 5.453359 -0.000000 52.263331
RightHand -4.162465 -0.000000 -42.293909
RightHandThumb1 -24.326973 -0.000000 -32.862282
LeftUpLeg -8.365989 21.509257 -2.764918
LeftLeg 11.828735 -0.000000 -0.000000
LeftFoot -13.482246 17.248107 -22.412910
LeftToeBase 8.113566 -0.000000 -0.000000
RightUpLeg -18.093242 -15.341751 -2.471882
RightLeg 13.558792 -0.000000 -0.000000
RightFoot -16.417509 -23.148519 20.248516
RightToeBase 11.164339 -0.000000 -0.000000
